<?xml version="1.0" encoding="UTF-8"?>
<svg width="186.457762px" height="46px" viewBox="0 0 186.457762 46" version="1.1" xmlns="http://www.w3.org/2000/svg" xmlns:xlink="http://www.w3.org/1999/xlink">
    <title>Group 29</title>
    <defs>
        <polygon id="path-1" points="0 0 10.1631769 0 10.1631769 13.3848375 0 13.3848375"></polygon>
        <polygon id="path-3" points="0 0 45.966787 0 45.966787 46 0 46"></polygon>
    </defs>
    <g id="Symbols" stroke="none" stroke-width="1" fill="none" fill-rule="evenodd">
        <g id="Navigation/Masthead/Template/Compressed" transform="translate(-20.000000, -7.000000)">
            <g id="Group-29" transform="translate(20.000000, 7.000000)">
                <path d="M22.9833935,1.19566787 C35.0347292,1.19566787 44.8043321,10.9652708 44.8043321,23.0166065 C44.8043321,35.0679422 35.0347292,44.8375451 22.9833935,44.8375451 C10.9320578,44.8375451 1.16245487,35.0679422 1.16245487,23.0166065 C1.16245487,10.9652708 10.9320578,1.19566787 22.9833935,1.19566787" id="Fill-1" fill="#FFFFFF"></path>
                <path d="M50.9819495,29.1277978 L50.9819495,15.7761733 L53.9379061,15.7761733 L53.9379061,26.4707581 L60.6137184,26.4707581 L60.6137184,29.1277978 C60.5805054,29.1277978 50.9819495,29.1277978 50.9819495,29.1277978" id="Fill-3" fill="#3C464E"></path>
                <polygon id="Fill-5" fill="#3C464E" points="64.06787 29.1277978 64.06787 15.7761733 67.0238267 15.7761733 67.0238267 29.1277978"></polygon>
                <path d="M77.4194946,29.3602888 C73.26787,29.3602888 70.4115523,26.4375451 70.4115523,22.4851986 L70.4115523,22.4519856 C70.4115523,18.665704 73.367509,15.5436823 77.4194946,15.5436823 C79.8108303,15.5436823 81.2722022,16.2079422 82.667148,17.3703971 L80.8072202,19.5956679 C79.7776173,18.73213 78.8476534,18.233935 77.3198556,18.233935 C75.1942238,18.233935 73.467148,20.1270758 73.467148,22.3855596 L73.467148,22.4519856 C73.467148,24.8765343 75.1610108,26.7032491 77.5191336,26.7032491 C78.5819495,26.7032491 79.5451264,26.4375451 80.2758123,25.9061372 L80.2758123,24.0129964 L77.3198556,24.0129964 L77.3198556,21.4888087 L83.13213,21.4888087 L83.13213,27.301083 C81.7703971,28.3971119 79.8772563,29.3602888 77.4194946,29.3602888" id="Fill-7" fill="#3C464E"></path>
                <polygon id="Fill-9" fill="#3C464E" points="95.4541516 29.1277978 95.4541516 23.7472924 90.0404332 23.7472924 90.0404332 29.0945848 87.0844765 29.0945848 87.0844765 15.7761733 90.0404332 15.7761733 90.0404332 21.0570397 95.4541516 21.0570397 95.4541516 15.7761733 98.4101083 15.7761733 98.4101083 29.1277978"></polygon>
                <polygon id="Fill-11" fill="#3C464E" points="108.805776 18.466426 108.805776 29.0945848 105.849819 29.0945848 105.849819 18.466426 101.797834 18.466426 101.797834 15.7429603 112.857762 15.7429603 112.857762 18.466426"></polygon>
                <polygon id="Fill-13" fill="#3C464E" points="124.615162 29.1277978 124.615162 23.7472924 119.201444 23.7472924 119.201444 29.0945848 116.245487 29.0945848 116.245487 15.7761733 119.201444 15.7761733 119.201444 21.0570397 124.615162 21.0570397 124.615162 15.7761733 127.571119 15.7761733 127.571119 29.1277978"></polygon>
                <path d="M141.952347,22.4519856 C141.952347,20.1602888 140.291697,18.267148 137.900361,18.267148 C135.509025,18.267148 133.881588,20.1270758 133.881588,22.4187726 L133.881588,22.4519856 C133.881588,24.7436823 135.542238,26.6368231 137.933574,26.6368231 C140.291697,26.6368231 141.952347,24.7768953 141.952347,22.4851986 L141.952347,22.4519856 Z M137.900361,29.3602888 C133.781949,29.3602888 130.825993,26.3046931 130.825993,22.4851986 L130.825993,22.4519856 C130.825993,18.665704 133.815162,15.5436823 137.933574,15.5436823 C142.051986,15.5436823 145.007942,18.599278 145.007942,22.4187726 L145.007942,22.4519856 C145.041155,26.2382671 142.018773,29.3602888 137.900361,29.3602888 L137.900361,29.3602888 Z" id="Fill-15" fill="#3C464E"></path>
                <path d="M153.875812,29.2274368 C150.288809,29.2274368 148.096751,27.234657 148.096751,23.2823105 L148.096751,15.6433213 L151.052708,15.6433213 L151.052708,23.2158845 C151.052708,25.4079422 152.148736,26.5039711 153.942238,26.5039711 C155.73574,26.5039711 156.831769,25.4079422 156.831769,23.2823105 L156.831769,15.6433213 L159.787726,15.6433213 L159.787726,23.1826715 C159.754513,27.234657 157.462816,29.2274368 153.875812,29.2274368" id="Fill-17" fill="#3C464E"></path>
                <path d="M168.157401,29.3270758 C166.131408,29.3270758 164.105415,28.6296029 162.477978,27.201444 L164.205054,25.1090253 C165.400722,26.1054152 166.662816,26.7364621 168.190614,26.7364621 C169.386282,26.7364621 170.116968,26.2714801 170.116968,25.4743682 L170.116968,25.4411552 C170.116968,24.7104693 169.651986,24.3119134 167.426715,23.7472924 C164.736462,23.0498195 163.009386,22.3191336 163.009386,19.6620939 L163.009386,19.6288809 C163.009386,17.2043321 164.968953,15.6101083 167.692419,15.6101083 C169.651986,15.6101083 171.279422,16.2079422 172.641155,17.3039711 L171.113357,19.5292419 C169.91769,18.698917 168.755235,18.200722 167.625993,18.200722 C166.496751,18.200722 165.898917,18.698917 165.898917,19.3631769 L165.898917,19.3963899 C165.898917,20.2599278 166.463538,20.5588448 168.788448,21.1566787 C171.511913,21.8541516 173.039711,22.8505415 173.039711,25.1754513 L173.039711,25.2086643 C173.072924,27.832491 171.046931,29.3270758 168.157401,29.3270758" id="Fill-19" fill="#3C464E"></path>
                <g id="Group-23" transform="translate(176.294585, 15.776173)">
                    <mask id="mask-2" fill="white">
                        <use xlink:href="#path-1"></use>
                    </mask>
                    <g id="Clip-22"></g>
                    <polygon id="Fill-21" fill="#3C464E" mask="url(#mask-2)" points="0 13.3516245 0 0 10.0635379 0 10.0635379 2.62382671 2.92274368 2.62382671 2.92274368 5.34729242 9.233213 5.34729242 9.233213 7.97111913 2.92274368 7.97111913 2.92274368 10.7610108 10.1631769 10.7610108 10.1631769 13.3848375"></polygon>
                </g>
                <g id="Group-26">
                    <mask id="mask-4" fill="white">
                        <use xlink:href="#path-3"></use>
                    </mask>
                    <g id="Clip-25"></g>
                    <path d="M22.9833935,44.0736462 C11.3588448,44.0736462 1.89314079,34.6079422 1.89314079,22.9833935 C1.89314079,11.3588448 11.3588448,1.89314079 22.9833935,1.89314079 C34.6079422,1.89314079 44.0736462,11.3588448 44.0736462,22.9833935 C44.0736462,34.6411552 34.6079422,44.0736462 22.9833935,44.0736462 M22.9833935,-9.43970133e-15 C10.3292419,-9.43970133e-15 0,10.3292419 0,23.0166065 C0,35.7039711 10.3292419,46 22.9833935,46 C35.6375451,46 45.966787,35.6707581 45.966787,23.0166065 C45.966787,10.3624549 35.6707581,-9.43970133e-15 22.9833935,-9.43970133e-15" id="Fill-24" fill="#B9C7D2" mask="url(#mask-4)"></path>
                </g>
                <path d="M20.5920578,21.1898917 L18.433213,22.9169675 L18.433213,23.0166065 L18.665704,26.2050542 L9.56534296,26.2050542 L9.79783394,22.9169675 L7.63898917,21.1898917 L7.63898917,20.1602888 L10.8938628,20.1602888 L10.8938628,14.0158845 L10.3292419,14.0158845 L10.3292419,12.9198556 L12.7870036,11.6245487 C12.8534296,10.9602888 13.4180505,10.4288809 14.1155235,10.4288809 C14.8129964,10.4288809 15.3776173,10.9602888 15.4440433,11.6245487 L17.9018051,12.9198556 L17.9018051,14.0158845 L17.3371841,14.0158845 L17.3371841,20.1602888 L20.5920578,20.1602888 L20.5920578,21.1898917 Z M9.166787,31.9176895 L9.46570397,27.865704 L18.798556,27.865704 L19.0642599,31.9176895 L9.166787,31.9176895 Z M18.433213,17.3703971 L18.433213,16.1083032 L38.5602888,12.3552347 C35.1725632,7.40649819 29.4599278,4.11841155 22.9833935,4.11841155 C12.5877256,4.11841155 4.11841155,12.5877256 4.11841155,22.9833935 C4.11841155,27.799278 5.94512635,32.1833935 8.90108303,35.5379061 L9.03393502,33.7444043 L19.1638989,33.7444043 L19.6953069,41.5826715 C20.7581227,41.7819495 21.8541516,41.8815884 22.9833935,41.8815884 C33.1133574,41.8815884 41.3833935,33.8772563 41.8483755,23.8469314 L18.433213,17.3703971 Z M12.3220217,19.1638989 L15.9422383,19.1638989 L15.9422383,14.2815884 L12.3220217,14.2815884 L12.3220217,19.1638989 Z" id="Fill-27" fill="#F79828"></path>
            </g>
        </g>
    </g>
</svg>